<mxfile host="65bd71144e">
    <diagram id="17Rdm5tTzwF7dkyEERoV" name="PÃ¡gina-1">
        <mxGraphModel dx="1372" dy="1782" grid="0" gridSize="10" guides="1" tooltips="1" connect="1" arrows="1" fold="1" page="1" pageScale="1" pageWidth="827" pageHeight="1169" background="#ffffff" math="0" shadow="0">
            <root>
                <mxCell id="0"/>
                <mxCell id="1" parent="0"/>
                <mxCell id="5" value="&lt;&lt;interface&gt;&gt;&#10;ControleRemoto" style="swimlane;fontStyle=0;childLayout=stackLayout;horizontal=1;startSize=50;fillColor=none;horizontalStack=0;resizeParent=1;resizeParentMax=0;resizeLast=0;collapsible=1;marginBottom=0;rounded=0;shadow=0;sketch=0;fontColor=#000000;strokeColor=#000000;" parent="1" vertex="1">
                    <mxGeometry x="-637" y="-908" width="178" height="150" as="geometry">
                        <mxRectangle x="-505" y="-802" width="89" height="50" as="alternateBounds"/>
                    </mxGeometry>
                </mxCell>
                <mxCell id="6" value="" style="text;strokeColor=#000000;fillColor=none;align=left;verticalAlign=top;spacingLeft=4;spacingRight=4;overflow=hidden;rotatable=0;points=[[0,0.5],[1,0.5]];portConstraint=eastwest;fontColor=#000000;" parent="5" vertex="1">
                    <mxGeometry y="50" width="178" height="57" as="geometry"/>
                </mxCell>
                <mxCell id="9" value="+ play()&#10;+ pause()" style="text;strokeColor=#000000;fillColor=none;align=left;verticalAlign=top;spacingLeft=4;spacingRight=4;overflow=hidden;rotatable=0;points=[[0,0.5],[1,0.5]];portConstraint=eastwest;fontColor=#000000;" parent="5" vertex="1">
                    <mxGeometry y="107" width="178" height="43" as="geometry"/>
                </mxCell>
                <mxCell id="21" value="&lt;h1&gt;&lt;/h1&gt;&lt;font color=&quot;#000000&quot;&gt;&lt;span style=&quot;font-size: 24px&quot;&gt;&lt;b&gt;Interfaces&lt;br&gt;&lt;/b&gt;&lt;/span&gt;&lt;br&gt;Lorem&lt;br&gt;&lt;/font&gt;" style="text;html=1;strokeColor=none;fillColor=none;spacing=5;spacingTop=-20;whiteSpace=wrap;overflow=hidden;rounded=0;" parent="1" vertex="1">
                    <mxGeometry x="-633" y="-1045" width="422" height="120" as="geometry"/>
                </mxCell>
                <mxCell id="41" style="edgeStyle=orthogonalEdgeStyle;html=1;entryX=1;entryY=0.5;entryDx=0;entryDy=0;strokeColor=#2B2B2B;" parent="1" source="38" target="6" edge="1">
                    <mxGeometry relative="1" as="geometry"/>
                </mxCell>
                <mxCell id="51" value="extende" style="edgeLabel;html=1;align=center;verticalAlign=middle;resizable=0;points=[];" vertex="1" connectable="0" parent="41">
                    <mxGeometry x="0.3179" y="-3" relative="1" as="geometry">
                        <mxPoint x="3" y="3" as="offset"/>
                    </mxGeometry>
                </mxCell>
                <mxCell id="38" value="&lt;&lt;interface&gt;&gt;&#10;ControleSom" style="swimlane;fontStyle=0;childLayout=stackLayout;horizontal=1;startSize=50;fillColor=none;horizontalStack=0;resizeParent=1;resizeParentMax=0;resizeLast=0;collapsible=1;marginBottom=0;rounded=0;shadow=0;sketch=0;fontColor=#000000;strokeColor=#000000;" parent="1" vertex="1">
                    <mxGeometry x="-398" y="-698" width="178" height="150" as="geometry">
                        <mxRectangle x="-505" y="-802" width="89" height="50" as="alternateBounds"/>
                    </mxGeometry>
                </mxCell>
                <mxCell id="39" value="" style="text;strokeColor=#000000;fillColor=none;align=left;verticalAlign=top;spacingLeft=4;spacingRight=4;overflow=hidden;rotatable=0;points=[[0,0.5],[1,0.5]];portConstraint=eastwest;fontColor=#000000;" parent="38" vertex="1">
                    <mxGeometry y="50" width="178" height="57" as="geometry"/>
                </mxCell>
                <mxCell id="40" value="+ mudarRadio()" style="text;strokeColor=#000000;fillColor=none;align=left;verticalAlign=top;spacingLeft=4;spacingRight=4;overflow=hidden;rotatable=0;points=[[0,0.5],[1,0.5]];portConstraint=eastwest;fontColor=#000000;" parent="38" vertex="1">
                    <mxGeometry y="107" width="178" height="43" as="geometry"/>
                </mxCell>
                <mxCell id="45" value="implementa" style="edgeStyle=orthogonalEdgeStyle;html=1;entryX=0.501;entryY=1.012;entryDx=0;entryDy=0;entryPerimeter=0;strokeColor=#2B2B2B;dashed=1;" parent="1" source="42" target="9" edge="1">
                    <mxGeometry relative="1" as="geometry">
                        <Array as="points">
                            <mxPoint x="-548" y="-735"/>
                            <mxPoint x="-548" y="-735"/>
                        </Array>
                    </mxGeometry>
                </mxCell>
                <mxCell id="42" value="Blueray" style="swimlane;fontStyle=0;childLayout=stackLayout;horizontal=1;startSize=50;fillColor=none;horizontalStack=0;resizeParent=1;resizeParentMax=0;resizeLast=0;collapsible=1;marginBottom=0;rounded=0;shadow=0;sketch=0;fontColor=#000000;strokeColor=#000000;" parent="1" vertex="1">
                    <mxGeometry x="-637" y="-698" width="178" height="150" as="geometry">
                        <mxRectangle x="-505" y="-802" width="89" height="50" as="alternateBounds"/>
                    </mxGeometry>
                </mxCell>
                <mxCell id="43" value="" style="text;strokeColor=#000000;fillColor=none;align=left;verticalAlign=top;spacingLeft=4;spacingRight=4;overflow=hidden;rotatable=0;points=[[0,0.5],[1,0.5]];portConstraint=eastwest;fontColor=#000000;" parent="42" vertex="1">
                    <mxGeometry y="50" width="178" height="57" as="geometry"/>
                </mxCell>
                <mxCell id="44" value="+ pay()&#10;+ pause()" style="text;strokeColor=#000000;fillColor=none;align=left;verticalAlign=top;spacingLeft=4;spacingRight=4;overflow=hidden;rotatable=0;points=[[0,0.5],[1,0.5]];portConstraint=eastwest;fontColor=#000000;" parent="42" vertex="1">
                    <mxGeometry y="107" width="178" height="43" as="geometry"/>
                </mxCell>
                <mxCell id="50" value="implementa" style="edgeStyle=orthogonalEdgeStyle;html=1;entryX=0.503;entryY=1.012;entryDx=0;entryDy=0;entryPerimeter=0;dashed=1;strokeColor=#2B2B2B;" parent="1" source="47" target="40" edge="1">
                    <mxGeometry relative="1" as="geometry"/>
                </mxCell>
                <mxCell id="47" value="Som" style="swimlane;fontStyle=0;childLayout=stackLayout;horizontal=1;startSize=50;fillColor=none;horizontalStack=0;resizeParent=1;resizeParentMax=0;resizeLast=0;collapsible=1;marginBottom=0;rounded=0;shadow=0;sketch=0;fontColor=#000000;strokeColor=#000000;" parent="1" vertex="1">
                    <mxGeometry x="-398" y="-487" width="178" height="169" as="geometry">
                        <mxRectangle x="-505" y="-802" width="89" height="50" as="alternateBounds"/>
                    </mxGeometry>
                </mxCell>
                <mxCell id="48" value="" style="text;strokeColor=#000000;fillColor=none;align=left;verticalAlign=top;spacingLeft=4;spacingRight=4;overflow=hidden;rotatable=0;points=[[0,0.5],[1,0.5]];portConstraint=eastwest;fontColor=#000000;" parent="47" vertex="1">
                    <mxGeometry y="50" width="178" height="57" as="geometry"/>
                </mxCell>
                <mxCell id="49" value="+ play()&#10;+ pause()&#10;+mudarRadio()" style="text;strokeColor=#000000;fillColor=none;align=left;verticalAlign=top;spacingLeft=4;spacingRight=4;overflow=hidden;rotatable=0;points=[[0,0.5],[1,0.5]];portConstraint=eastwest;fontColor=#000000;" parent="47" vertex="1">
                    <mxGeometry y="107" width="178" height="62" as="geometry"/>
                </mxCell>
            </root>
        </mxGraphModel>
    </diagram>
</mxfile>